<?xml version="1.0" standalone="no"?>
<!DOCTYPE svg PUBLIC "-//W3C//DTD SVG 20010904//EN"
 "http://www.w3.org/TR/2001/REC-SVG-20010904/DTD/svg10.dtd">
<svg version="1.0" xmlns="http://www.w3.org/2000/svg"
 width="225.000000pt" height="225.000000pt" viewBox="0 0 225.000000 225.000000"
 preserveAspectRatio="xMidYMid meet">
<metadata>
Created by potrace 1.16, written by Peter Selinger 2001-2019
</metadata>
<g transform="translate(0.000000,225.000000) scale(0.100000,-0.100000)"
fill="#000000" stroke="none">
<path d="M928 2005 c16 -21 19 -32 12 -57 -13 -43 -16 -44 -25 -6 l-7 33 -10
-35 c-5 -19 -24 -51 -42 -70 -84 -90 -86 -95 -86 -181 l0 -79 30 0 c32 0 37
-8 18 -30 -11 -12 -10 -12 5 0 10 7 16 19 13 27 -3 7 1 13 9 13 19 0 19 8 1
42 -17 33 -8 38 70 38 52 0 124 -26 139 -49 3 -6 30 -18 60 -27 36 -12 51 -21
43 -26 -8 -5 -2 -8 17 -8 17 0 59 14 93 30 66 31 81 31 83 2 0 -11 5 -6 13 12
12 27 13 27 19 7 3 -11 13 -21 22 -21 9 0 14 -4 10 -9 -3 -5 0 -13 6 -17 8 -4
9 -3 5 4 -5 8 1 12 18 12 13 0 27 -6 29 -12 3 -7 6 26 6 74 1 79 -2 93 -34
159 -21 44 -35 64 -35 51 0 -36 -16 -25 -34 23 -19 47 -44 75 -34 37 7 -25 1
-23 -52 20 -42 33 -135 68 -181 68 -27 0 -30 -2 -19 -15 15 -19 8 -19 -54 0
-27 8 -67 15 -88 15 l-39 0 19 -25z"/>
<path d="M827 1513 c-50 -15 -57 -20 -53 -38 3 -11 6 -28 6 -37 0 -10 5 -17
11 -15 7 1 17 -22 24 -51 7 -30 17 -58 23 -64 31 -31 187 -27 220 6 8 8 22 43
31 78 13 50 20 63 36 63 16 0 23 -13 36 -63 9 -35 23 -70 31 -78 21 -21 123
-35 172 -24 49 11 64 29 72 92 4 31 11 48 20 48 8 0 14 6 14 13 0 6 3 21 6 32
5 18 -3 23 -66 39 -57 15 -86 17 -143 11 -84 -10 -179 -10 -297 -2 -65 5 -99
2 -143 -10z m228 -27 c24 -16 26 -21 19 -64 -14 -99 -32 -115 -136 -116 -83 0
-95 9 -108 90 -12 72 -7 90 28 103 40 16 166 7 197 -13z m327 14 c44 -13 50
-27 42 -94 -9 -72 -24 -92 -76 -99 -52 -7 -125 6 -144 25 -21 21 -38 126 -23
144 25 30 131 43 201 24z"/>
<path d="M820 1182 c0 -45 30 -173 49 -211 12 -22 40 -53 63 -69 24 -16 52
-40 63 -52 31 -34 70 -50 124 -50 66 0 92 11 158 68 114 96 133 131 148 275 7
65 -6 75 -33 25 -21 -40 -78 -98 -97 -98 -7 0 -27 -17 -44 -37 l-31 -38 -96 0
c-92 0 -96 1 -115 27 -11 15 -42 40 -68 57 -30 18 -58 45 -72 72 -27 47 -49
61 -49 31z"/>
<path d="M1014 1149 c-45 -38 -70 -42 -76 -11 -3 16 -4 16 -10 1 -4 -9 0 -26
8 -38 20 -28 66 -27 104 0 21 16 43 22 83 22 40 0 63 -6 85 -22 39 -27 86 -28
106 0 8 12 12 28 9 36 -5 13 -7 13 -15 -1 -14 -25 -41 -19 -77 18 -32 32 -36
34 -103 34 -66 -1 -72 -3 -114 -39z"/>
<path d="M1115 750 c-5 -7 -9 -55 -11 -106 -1 -51 -7 -100 -12 -110 -8 -14
-12 -11 -31 20 -13 20 -27 33 -33 30 -7 -4 -8 -2 -4 4 5 9 -39 81 -81 131 -5
7 -164 -59 -195 -81 -15 -10 -31 -33 -37 -51 -9 -27 -51 -319 -51 -354 0 -10
100 -13 465 -13 374 0 465 3 465 13 0 31 -41 316 -50 349 -13 46 -42 67 -148
108 l-84 32 -16 -23 c-9 -12 -42 -60 -74 -107 -65 -97 -68 -95 -72 46 -2 89
-16 137 -31 112z"/>
</g>
</svg>
